<svg xmlns="http://www.w3.org/2000/svg" viewBox="0 0 100 100" width="100" height="100">
  <rect width="100" height="100" rx="20" fill="#8c3494"/>
  <path d="M50 15 C45 28, 38 42, 38 58 C38 68, 44 76, 50 82 C56 76, 62 68, 62 58 C62 42, 55 28, 50 15 Z" fill="#ffffff"/>
  <circle cx="50" cy="45" r="7" fill="#8c3494"/>
  <path d="M38 55 C28 58, 22 68, 20 78 C28 76, 36 70, 40 65 Z" fill="#ec1c24"/>
  <path d="M62 55 C72 58, 78 68, 80 78 C72 76, 64 70, 60 65 Z" fill="#ec1c24"/>
  <polygon points="46,80 54,80 50,92" fill="#f8a51d"/>
</svg>
